G75*
G70*
%OFA0B0*%
%FSLAX24Y24*%
%IPPOS*%
%LPD*%
%AMOC8*
5,1,8,0,0,1.08239X$1,22.5*
%
%ADD10C,0.0100*%
%ADD11R,0.0356X0.0434*%
%ADD12R,0.0434X0.0356*%
%ADD13R,0.0513X0.0828*%
%ADD14R,0.0277X0.1064*%
%ADD15R,0.0867X0.1064*%
%ADD16C,0.0434*%
%ADD17R,0.0710X0.0631*%
%ADD18R,0.0395X0.0395*%
%ADD19R,0.0277X0.0671*%
%ADD20R,0.0671X0.0277*%
%ADD21C,0.1730*%
%ADD22R,0.0671X0.0710*%
%ADD23C,0.0986*%
%ADD24R,0.0710X0.0671*%
%ADD25R,0.0789X0.0474*%
%ADD26R,0.0330X0.0580*%
%ADD27R,0.0474X0.0867*%
%ADD28C,0.0330*%
%ADD29R,0.0867X0.0474*%
D10*
X029690Y015990D02*
X029990Y015990D01*
X029990Y016290D01*
X029690Y016290D01*
X029690Y015990D01*
X029690Y015999D02*
X029990Y015999D01*
X029990Y016097D02*
X029690Y016097D01*
X029690Y016196D02*
X029990Y016196D01*
X029990Y036490D02*
X029690Y036490D01*
X029690Y036790D01*
X029990Y036790D01*
X029990Y036490D01*
X029990Y036585D02*
X029690Y036585D01*
X029690Y036684D02*
X029990Y036684D01*
X029990Y036782D02*
X029690Y036782D01*
D11*
X025096Y038140D03*
X024584Y038140D03*
X022096Y038140D03*
X021584Y038140D03*
X020596Y038640D03*
X020084Y038640D03*
X016096Y035140D03*
X015584Y035140D03*
X013096Y032640D03*
X012584Y032640D03*
X012096Y032640D03*
X011584Y032640D03*
X011584Y031140D03*
X012096Y031140D03*
X012584Y031140D03*
X013096Y031140D03*
X014084Y025640D03*
X014084Y025140D03*
X014596Y025140D03*
X014596Y025640D03*
X020084Y018140D03*
X020596Y018140D03*
X021584Y017640D03*
X022096Y017640D03*
X024584Y017640D03*
X025096Y017640D03*
X016096Y014640D03*
X015584Y014640D03*
X013096Y012140D03*
X012584Y012140D03*
X012096Y012140D03*
X011584Y012140D03*
X011584Y010640D03*
X012096Y010640D03*
X012584Y010640D03*
X013096Y010640D03*
X014084Y005140D03*
X014084Y004640D03*
X014596Y004640D03*
X014596Y005140D03*
X006846Y007140D03*
X006334Y007140D03*
X006334Y008140D03*
X006846Y008140D03*
X006846Y009140D03*
X006334Y009140D03*
X006334Y010140D03*
X006846Y010140D03*
X006846Y014140D03*
X006334Y014140D03*
X006334Y015140D03*
X006846Y015140D03*
X006846Y027640D03*
X006334Y027640D03*
X006334Y028640D03*
X006846Y028640D03*
X006846Y029640D03*
X006334Y029640D03*
X006334Y030640D03*
X006846Y030640D03*
X006846Y034640D03*
X006334Y034640D03*
X006334Y035640D03*
X006846Y035640D03*
X034084Y033140D03*
X034596Y033140D03*
X034596Y032140D03*
X034084Y032140D03*
X034084Y031140D03*
X034596Y031140D03*
X034596Y030140D03*
X034084Y030140D03*
X034084Y029140D03*
X034596Y029140D03*
X034596Y028140D03*
X034084Y028140D03*
X034084Y012640D03*
X034596Y012640D03*
X034596Y011640D03*
X034084Y011640D03*
X034084Y010640D03*
X034596Y010640D03*
X034596Y009640D03*
X034084Y009640D03*
X034084Y008640D03*
X034596Y008640D03*
X034596Y007640D03*
X034084Y007640D03*
D12*
X031340Y011384D03*
X031340Y011896D03*
X026840Y011896D03*
X026840Y011384D03*
X026840Y009396D03*
X026840Y008884D03*
X026840Y007396D03*
X026840Y006884D03*
X024340Y005896D03*
X024340Y005384D03*
X018840Y006384D03*
X018840Y006896D03*
X018840Y009384D03*
X018840Y009896D03*
X020340Y012384D03*
X020840Y012384D03*
X021340Y012384D03*
X021840Y011896D03*
X021840Y011384D03*
X021340Y012896D03*
X020840Y012896D03*
X020340Y012896D03*
X013840Y014384D03*
X013840Y014896D03*
X004340Y015384D03*
X004340Y015896D03*
X018840Y026884D03*
X018840Y027396D03*
X018840Y029884D03*
X018840Y030396D03*
X020340Y032884D03*
X020840Y032884D03*
X021340Y032884D03*
X021840Y032396D03*
X021840Y031884D03*
X021340Y033396D03*
X020840Y033396D03*
X020340Y033396D03*
X026840Y032396D03*
X026840Y031884D03*
X026840Y029896D03*
X026840Y029384D03*
X026840Y027896D03*
X026840Y027384D03*
X024340Y026396D03*
X024340Y025884D03*
X031340Y031884D03*
X031340Y032396D03*
X036340Y035884D03*
X036340Y036396D03*
X036340Y015896D03*
X036340Y015384D03*
X013840Y034884D03*
X013840Y035396D03*
X004340Y035884D03*
X004340Y036396D03*
D13*
X025387Y029368D03*
X026293Y029368D03*
X026293Y027912D03*
X025387Y027912D03*
X025387Y008868D03*
X026293Y008868D03*
X026293Y007412D03*
X025387Y007412D03*
D14*
X016470Y016156D03*
X016155Y016156D03*
X015840Y016156D03*
X015525Y016156D03*
X015210Y016156D03*
X015210Y036656D03*
X015525Y036656D03*
X015840Y036656D03*
X016155Y036656D03*
X016470Y036656D03*
D15*
X017612Y036656D03*
X017612Y038821D03*
X014068Y038821D03*
X014068Y036656D03*
X014068Y018321D03*
X014068Y016156D03*
X017612Y016156D03*
X017612Y018321D03*
D16*
X016706Y017140D03*
X014974Y017140D03*
X014974Y037640D03*
X016706Y037640D03*
D17*
X017840Y027691D03*
X017840Y026589D03*
X017840Y007191D03*
X017840Y006089D03*
D18*
X016135Y014140D03*
X015545Y014140D03*
X022545Y017640D03*
X023135Y017640D03*
X023545Y017640D03*
X024135Y017640D03*
X037840Y014935D03*
X037840Y014345D03*
X037840Y034845D03*
X037840Y035435D03*
X024135Y038140D03*
X023545Y038140D03*
X023135Y038140D03*
X022545Y038140D03*
X016135Y034640D03*
X015545Y034640D03*
X002840Y034845D03*
X002840Y035435D03*
X002840Y014935D03*
X002840Y014345D03*
D19*
X020265Y010423D03*
X020580Y010423D03*
X020895Y010423D03*
X021210Y010423D03*
X021525Y010423D03*
X021840Y010423D03*
X022155Y010423D03*
X022470Y010423D03*
X022785Y010423D03*
X023100Y010423D03*
X023415Y010423D03*
X023415Y005857D03*
X023100Y005857D03*
X022785Y005857D03*
X022470Y005857D03*
X022155Y005857D03*
X021840Y005857D03*
X021525Y005857D03*
X021210Y005857D03*
X020895Y005857D03*
X020580Y005857D03*
X020265Y005857D03*
X020265Y026357D03*
X020580Y026357D03*
X020895Y026357D03*
X021210Y026357D03*
X021525Y026357D03*
X021840Y026357D03*
X022155Y026357D03*
X022470Y026357D03*
X022785Y026357D03*
X023100Y026357D03*
X023415Y026357D03*
X023415Y030923D03*
X023100Y030923D03*
X022785Y030923D03*
X022470Y030923D03*
X022155Y030923D03*
X021840Y030923D03*
X021525Y030923D03*
X021210Y030923D03*
X020895Y030923D03*
X020580Y030923D03*
X020265Y030923D03*
D20*
X019557Y030215D03*
X019557Y029900D03*
X019557Y029585D03*
X019557Y029270D03*
X019557Y028955D03*
X019557Y028640D03*
X019557Y028325D03*
X019557Y028010D03*
X019557Y027695D03*
X019557Y027380D03*
X019557Y027065D03*
X024123Y027065D03*
X024123Y027380D03*
X024123Y027695D03*
X024123Y028010D03*
X024123Y028325D03*
X024123Y028640D03*
X024123Y028955D03*
X024123Y029270D03*
X024123Y029585D03*
X024123Y029900D03*
X024123Y030215D03*
X024123Y009715D03*
X024123Y009400D03*
X024123Y009085D03*
X024123Y008770D03*
X024123Y008455D03*
X024123Y008140D03*
X024123Y007825D03*
X024123Y007510D03*
X024123Y007195D03*
X024123Y006880D03*
X024123Y006565D03*
X019557Y006565D03*
X019557Y006880D03*
X019557Y007195D03*
X019557Y007510D03*
X019557Y007825D03*
X019557Y008140D03*
X019557Y008455D03*
X019557Y008770D03*
X019557Y009085D03*
X019557Y009400D03*
X019557Y009715D03*
D21*
X004465Y001515D03*
X006215Y001515D03*
X010465Y001515D03*
X012215Y001515D03*
X016465Y001515D03*
X018215Y001515D03*
X022465Y001515D03*
X024215Y001515D03*
X028465Y001515D03*
X030215Y001515D03*
X034465Y001515D03*
X036215Y001515D03*
X032840Y010515D03*
X032840Y012265D03*
X025340Y012265D03*
X025340Y010515D03*
X016715Y011390D03*
X014965Y011390D03*
X012340Y014015D03*
X012340Y015765D03*
X009715Y011390D03*
X007965Y011390D03*
X012340Y008765D03*
X012340Y007015D03*
X012215Y022015D03*
X010465Y022015D03*
X006215Y022015D03*
X004465Y022015D03*
X012340Y027515D03*
X012340Y029265D03*
X009715Y031890D03*
X007965Y031890D03*
X012340Y034515D03*
X012340Y036265D03*
X014965Y031890D03*
X016715Y031890D03*
X025340Y031015D03*
X025340Y032765D03*
X032840Y032765D03*
X032840Y031015D03*
X034465Y022015D03*
X036215Y022015D03*
X030215Y022015D03*
X028465Y022015D03*
X024215Y022015D03*
X022465Y022015D03*
X018215Y022015D03*
X016465Y022015D03*
D22*
X013049Y024890D03*
X011631Y024890D03*
X011631Y018390D03*
X013049Y018390D03*
X024631Y015390D03*
X026049Y015390D03*
X032131Y015390D03*
X033549Y015390D03*
X013049Y004390D03*
X011631Y004390D03*
X024631Y035890D03*
X026049Y035890D03*
X032131Y035890D03*
X033549Y035890D03*
X013049Y038890D03*
X011631Y038890D03*
D23*
X012340Y038890D03*
X005340Y031890D03*
X012340Y024890D03*
X012340Y018390D03*
X005340Y011390D03*
X012340Y004390D03*
X019340Y011390D03*
X025340Y015390D03*
X032840Y015390D03*
X019340Y031890D03*
X025340Y035890D03*
X032840Y035890D03*
D24*
X019340Y032599D03*
X019340Y031181D03*
X005340Y031181D03*
X005340Y032599D03*
X005340Y012099D03*
X005340Y010681D03*
X019340Y010681D03*
X019340Y012099D03*
D25*
X014840Y014089D03*
X014840Y015191D03*
X014840Y034589D03*
X014840Y035691D03*
D26*
X029640Y036640D03*
X030040Y036640D03*
X030040Y016140D03*
X029640Y016140D03*
D27*
X023840Y015490D03*
X022840Y015490D03*
X021840Y015490D03*
X020840Y015490D03*
X019840Y015490D03*
X018840Y015490D03*
X018840Y016790D03*
X019840Y016790D03*
X020840Y016790D03*
X021840Y016790D03*
X022840Y016790D03*
X023840Y016790D03*
X022840Y023990D03*
X021840Y023990D03*
X020840Y023990D03*
X019840Y023990D03*
X018840Y023990D03*
X017840Y023990D03*
X017840Y025290D03*
X018840Y025290D03*
X019840Y025290D03*
X020840Y025290D03*
X021840Y025290D03*
X022840Y025290D03*
X022840Y035990D03*
X023840Y035990D03*
X023840Y037290D03*
X022840Y037290D03*
X021840Y037290D03*
X020840Y037290D03*
X019840Y037290D03*
X018840Y037290D03*
X018840Y035990D03*
X019840Y035990D03*
X020840Y035990D03*
X021840Y035990D03*
X021840Y004790D03*
X020840Y004790D03*
X019840Y004790D03*
X018840Y004790D03*
X017840Y004790D03*
X017840Y003490D03*
X018840Y003490D03*
X019840Y003490D03*
X020840Y003490D03*
X021840Y003490D03*
X022840Y003490D03*
X022840Y004790D03*
D28*
X036340Y018640D03*
X036340Y039140D03*
X004340Y025140D03*
X004340Y004640D03*
D29*
X004490Y008140D03*
X004490Y009140D03*
X004490Y010140D03*
X004490Y011140D03*
X004490Y012140D03*
X004490Y013140D03*
X003190Y013140D03*
X003190Y012140D03*
X003190Y011140D03*
X003190Y010140D03*
X003190Y009140D03*
X003190Y008140D03*
X003190Y028640D03*
X003190Y029640D03*
X003190Y030640D03*
X003190Y031640D03*
X003190Y032640D03*
X003190Y033640D03*
X004490Y033640D03*
X004490Y032640D03*
X004490Y031640D03*
X004490Y030640D03*
X004490Y029640D03*
X004490Y028640D03*
X036190Y028640D03*
X036190Y029640D03*
X036190Y030640D03*
X036190Y031640D03*
X036190Y032640D03*
X036190Y033640D03*
X037490Y033640D03*
X037490Y032640D03*
X037490Y031640D03*
X037490Y030640D03*
X037490Y029640D03*
X037490Y028640D03*
X037490Y013140D03*
X037490Y012140D03*
X037490Y011140D03*
X037490Y010140D03*
X037490Y009140D03*
X037490Y008140D03*
X036190Y008140D03*
X036190Y009140D03*
X036190Y010140D03*
X036190Y011140D03*
X036190Y012140D03*
X036190Y013140D03*
M02*
