%
M48
M72
T01C0.0200
T02C0.0354
T03C0.0906
T04C0.1250
%
T01
X4840Y4490
X3840Y7640
X3840Y8640
X3840Y9640
X3840Y10640
X5340Y9640
X7540Y8640
X8840Y7990
X9840Y8990
X10340Y4640
X13640Y4640
X14690Y6490
X14740Y7690
X15140Y8140
X15390Y7690
X15740Y8490
X15340Y9090
X17540Y9090
X18340Y8990
X18840Y7640
X20290Y8190
X20340Y7640
X20340Y7140
X20790Y6590
X21290Y6590
X21790Y6590
X22490Y6640
X22340Y7290
X22640Y7990
X23340Y8140
X23340Y7640
X23340Y7140
X23340Y6640
X22340Y4790
X20340Y4340
X19440Y6140
X18340Y4990
X17190Y6290
X16340Y5140
X16940Y4440
X15840Y4790
X20790Y9340
X21340Y9290
X21340Y9790
X21865Y9315
X22240Y9690
X22490Y8890
X21290Y7990
X19840Y10140
X20315Y11140
X20340Y11690
X19340Y13140
X20340Y13390
X21640Y13740
X21340Y16140
X22340Y16140
X23340Y16140
X21584Y18140
X20490Y17590
X19590Y17590
X17390Y15290
X16590Y14690
X16840Y14140
X17390Y13690
X18340Y14640
X15540Y15140
X14790Y15890
X15940Y18040
X16740Y18040
X20340Y24840
X22340Y25290
X22490Y27140
X22340Y27790
X22640Y28490
X23340Y28640
X23340Y28140
X23340Y27640
X23340Y27140
X21790Y27090
X21290Y27090
X20790Y27090
X20340Y27640
X20340Y28140
X20290Y28690
X21290Y28490
X21340Y29790
X21340Y30290
X21865Y29815
X22240Y30190
X22490Y29390
X20790Y29840
X19840Y30640
X20315Y31640
X20340Y32190
X19340Y33640
X20340Y33890
X21640Y34240
X21340Y36640
X22340Y36640
X23340Y36640
X21584Y38640
X20490Y38090
X19590Y38090
X17390Y35790
X16590Y35190
X16840Y34640
X17390Y34190
X18340Y35140
X15540Y35640
X14790Y36390
X15940Y38540
X16740Y38540
X9940Y34240
X7840Y34240
X6840Y34180
X5840Y36490
X6846Y36946
X4840Y36640
X4340Y37140
X3840Y34140
X3840Y33140
X3840Y31140
X3840Y30140
X3840Y29140
X3840Y28140
X5340Y30140
X7540Y29140
X8840Y28490
X9840Y29490
X10340Y25140
X13640Y25140
X14690Y26990
X14740Y28190
X15140Y28640
X15390Y28190
X15740Y28990
X15340Y29590
X17540Y29590
X18340Y29490
X18840Y28140
X19440Y26640
X18340Y25490
X17190Y26790
X16340Y25640
X16940Y24940
X15840Y25290
X6846Y16446
X5840Y15990
X4840Y16140
X4340Y16640
X3840Y13640
X3840Y12640
X6840Y13680
X7840Y13740
X9940Y13740
X4840Y24990
X26690Y15390
X27190Y15890
X26990Y14790
X27840Y14190
X28840Y13190
X29840Y13640
X29690Y9190
X28090Y6290
X29090Y5790
X30090Y5790
X31090Y5790
X31590Y5790
X32590Y5790
X33590Y5790
X34590Y7140
X36340Y7140
X36340Y5640
X36840Y8640
X36840Y9640
X36840Y10640
X36840Y11640
X36840Y12640
X35545Y14345
X35096Y15896
X29790Y18740
X30090Y26290
X29090Y26290
X28090Y26790
X31090Y26290
X31590Y26290
X32590Y26290
X33590Y26290
X34590Y27640
X36340Y27640
X36340Y26140
X36840Y29140
X36840Y30140
X36840Y31140
X36840Y32140
X36840Y33140
X35545Y34845
X35096Y36396
X29840Y34140
X28840Y33690
X27840Y34690
X26990Y35290
X26690Y35890
X27190Y36390
X29790Y39240
X29690Y29690
T02
X16706Y37640
X14974Y37640
X14974Y17140
X16706Y17140
T03
X12340Y18390
X12340Y24890
X5340Y31890
X12340Y38890
X19340Y31890
X25340Y35890
X32840Y35890
X32840Y15390
X25340Y15390
X19340Y11390
X12340Y4390
X5340Y11390
T04
X4465Y1515
X6215Y1515
X10465Y1515
X12215Y1515
X16465Y1515
X18215Y1515
X22465Y1515
X24215Y1515
X28465Y1515
X30215Y1515
X34465Y1515
X36215Y1515
X32840Y10515
X32840Y12265
X25340Y12265
X25340Y10515
X16715Y11390
X14965Y11390
X12340Y14015
X12340Y15765
X9715Y11390
X7965Y11390
X12340Y8765
X12340Y7015
X12215Y22015
X10465Y22015
X6215Y22015
X4465Y22015
X12340Y27515
X12340Y29265
X9715Y31890
X7965Y31890
X12340Y34515
X12340Y36265
X14965Y31890
X16715Y31890
X25340Y31015
X25340Y32765
X32840Y32765
X32840Y31015
X34465Y22015
X36215Y22015
X30215Y22015
X28465Y22015
X24215Y22015
X22465Y22015
X18215Y22015
X16465Y22015
M30
